<svg xmlns="http://www.w3.org/2000/svg" viewBox="0 0 600 1000">
  <defs>
    <linearGradient id="g1" x1="0" y1="0" x2="1" y2="1">
      <stop offset="0%" stop-color="#2a2108"/>
      <stop offset="100%" stop-color="#120f08"/>
    </linearGradient>
  </defs>
  <rect width="600" height="1000" fill="url(#g1)"/>
  <rect x="24" y="24" width="552" height="952" rx="28" fill="none" stroke="#e9c349" stroke-opacity="0.4" stroke-width="6"/>
  <circle cx="300" cy="500" r="180" fill="none" stroke="#e9c349" stroke-opacity="0.35" stroke-width="4"/>
  <circle cx="300" cy="500" r="100" fill="none" stroke="#e9c349" stroke-opacity="0.2" stroke-width="3"/>
  <path d="M300 260 L338 460 L542 460 L374 578 L438 780 L300 650 L162 780 L226 578 L58 460 L262 460 Z" fill="#e9c349" fill-opacity="0.12" stroke="#e9c349" stroke-opacity="0.55" stroke-width="4"/>
  <text x="300" y="915" fill="#e9c349" fill-opacity="0.75" text-anchor="middle" font-size="36" font-family="serif">ARCANA I</text>
</svg>
<svg xmlns="http://www.w3.org/2000/svg" viewBox="0 0 600 1000">
  <defs>
    <linearGradient id="g1" x1="0" y1="0" x2="1" y2="1">
      <stop offset="0%" stop-color="#2a2108"/>
      <stop offset="100%" stop-color="#120f08"/>
    </linearGradient>
  </defs>
  <rect width="600" height="1000" fill="url(#g1)"/>
  <rect x="24" y="24" width="552" height="952" rx="28" fill="none" stroke="#e9c349" stroke-opacity="0.4" stroke-width="6"/>
  <circle cx="300" cy="500" r="180" fill="none" stroke="#e9c349" stroke-opacity="0.35" stroke-width="4"/>
  <circle cx="300" cy="500" r="100" fill="none" stroke="#e9c349" stroke-opacity="0.2" stroke-width="3"/>
  <path d="M300 260 L338 460 L542 460 L374 578 L438 780 L300 650 L162 780 L226 578 L58 460 L262 460 Z" fill="#e9c349" fill-opacity="0.12" stroke="#e9c349" stroke-opacity="0.55" stroke-width="4"/>
  <text x="300" y="915" fill="#e9c349" fill-opacity="0.75" text-anchor="middle" font-size="36" font-family="serif">ARCANA I</text>
</svg>
