<svg xmlns="http://www.w3.org/2000/svg" viewBox="0 0 600 1000">
  <defs>
    <linearGradient id="g2" x1="0" y1="0" x2="0" y2="1">
      <stop offset="0%" stop-color="#1f1a0f"/>
      <stop offset="100%" stop-color="#0f0d08"/>
    </linearGradient>
  </defs>
  <rect width="600" height="1000" fill="url(#g2)"/>
  <rect x="28" y="28" width="544" height="944" rx="24" fill="none" stroke="#e9c349" stroke-opacity="0.45" stroke-width="5"/>
  <g stroke="#e9c349" stroke-opacity="0.45" fill="none" stroke-width="3">
    <path d="M120 160 C260 260 340 260 480 160"/>
    <path d="M120 840 C260 740 340 740 480 840"/>
    <path d="M160 260 C260 380 340 620 440 740"/>
    <path d="M440 260 C340 380 260 620 160 740"/>
  </g>
  <circle cx="300" cy="500" r="120" fill="#e9c349" fill-opacity="0.07"/>
  <path d="M300 390 L355 500 L300 610 L245 500 Z" fill="#e9c349" fill-opacity="0.25" stroke="#e9c349" stroke-opacity="0.65" stroke-width="4"/>
  <text x="300" y="915" fill="#e9c349" fill-opacity="0.75" text-anchor="middle" font-size="36" font-family="serif">ARCANA II</text>
</svg>
<svg xmlns="http://www.w3.org/2000/svg" viewBox="0 0 600 1000">
  <defs>
    <linearGradient id="g2" x1="0" y1="0" x2="0" y2="1">
      <stop offset="0%" stop-color="#1f1a0f"/>
      <stop offset="100%" stop-color="#0f0d08"/>
    </linearGradient>
  </defs>
  <rect width="600" height="1000" fill="url(#g2)"/>
  <rect x="28" y="28" width="544" height="944" rx="24" fill="none" stroke="#e9c349" stroke-opacity="0.45" stroke-width="5"/>
  <g stroke="#e9c349" stroke-opacity="0.45" fill="none" stroke-width="3">
    <path d="M120 160 C260 260 340 260 480 160"/>
    <path d="M120 840 C260 740 340 740 480 840"/>
    <path d="M160 260 C260 380 340 620 440 740"/>
    <path d="M440 260 C340 380 260 620 160 740"/>
  </g>
  <circle cx="300" cy="500" r="120" fill="#e9c349" fill-opacity="0.07"/>
  <path d="M300 390 L355 500 L300 610 L245 500 Z" fill="#e9c349" fill-opacity="0.25" stroke="#e9c349" stroke-opacity="0.65" stroke-width="4"/>
  <text x="300" y="915" fill="#e9c349" fill-opacity="0.75" text-anchor="middle" font-size="36" font-family="serif">ARCANA II</text>
</svg>
