<svg xmlns="http://www.w3.org/2000/svg" viewBox="0 0 600 1000">
  <defs>
    <radialGradient id="g3" cx="50%" cy="45%" r="70%">
      <stop offset="0%" stop-color="#3b2f12"/>
      <stop offset="100%" stop-color="#0f0d08"/>
    </radialGradient>
  </defs>
  <rect width="600" height="1000" fill="url(#g3)"/>
  <rect x="20" y="20" width="560" height="960" rx="30" fill="none" stroke="#e9c349" stroke-opacity="0.4" stroke-width="6"/>
  <g fill="#e9c349" fill-opacity="0.22" stroke="#e9c349" stroke-opacity="0.5" stroke-width="3">
    <polygon points="300,180 340,300 470,300 365,375 405,500 300,420 195,500 235,375 130,300 260,300"/>
    <polygon points="300,820 340,700 470,700 365,625 405,500 300,580 195,500 235,625 130,700 260,700"/>
  </g>
  <circle cx="300" cy="500" r="90" fill="none" stroke="#e9c349" stroke-opacity="0.65" stroke-width="5"/>
  <text x="300" y="915" fill="#e9c349" fill-opacity="0.75" text-anchor="middle" font-size="36" font-family="serif">ARCANA III</text>
</svg>
<svg xmlns="http://www.w3.org/2000/svg" viewBox="0 0 600 1000">
  <defs>
    <radialGradient id="g3" cx="50%" cy="45%" r="70%">
      <stop offset="0%" stop-color="#3b2f12"/>
      <stop offset="100%" stop-color="#0f0d08"/>
    </radialGradient>
  </defs>
  <rect width="600" height="1000" fill="url(#g3)"/>
  <rect x="20" y="20" width="560" height="960" rx="30" fill="none" stroke="#e9c349" stroke-opacity="0.4" stroke-width="6"/>
  <g fill="#e9c349" fill-opacity="0.22" stroke="#e9c349" stroke-opacity="0.5" stroke-width="3">
    <polygon points="300,180 340,300 470,300 365,375 405,500 300,420 195,500 235,375 130,300 260,300"/>
    <polygon points="300,820 340,700 470,700 365,625 405,500 300,580 195,500 235,625 130,700 260,700"/>
  </g>
  <circle cx="300" cy="500" r="90" fill="none" stroke="#e9c349" stroke-opacity="0.65" stroke-width="5"/>
  <text x="300" y="915" fill="#e9c349" fill-opacity="0.75" text-anchor="middle" font-size="36" font-family="serif">ARCANA III</text>
</svg>
